<svg xmlns="http://www.w3.org/2000/svg" viewBox="0 0 148.1 72.7"><switch><g><path d="M143.2 31.4c-1.5 1.1-3.1 1.9-4.7 2.8 0-1.7-.1-3.5-.6-5.1.1-.3.1-.7.1-1 .4-3 .7-7.1-2-9.2-.3-.3-1.2 0-1.9.3-.2-.2-.3-.3-.5-.4-.1-.2-.2-.5-.2-.7 0-.1-.2-.2-.4-.2.3-.4.3-.8-.4-1.1-.4-.2-.8-.3-1.1-.4-.1-.1-.1-.1-.2-.1-.9-.3-1.9-.5-2.9-.7.1-.3.4-.8.6-1 .1-.2.3-.3.4-.4l.2-.2s.1 0 .1-.1l.1-.1c.4-.3.8-.9.2-1.2-.6-.3-1.5-.1-2 .2-.9.7-1.6 1.4-2.1 2.4-2-.2-4-.2-6.1-.1.1-.1.1-.2.1-.3.2-.6-.9-.5-1.2-.5-1.6.2-3.1.4-4.7.6 1.4-3.8 3.1-8.6 1-12.3-1.2-2.1-3.9-2.6-6.1-2.7-2.4-.1-4.9.5-7 1.6-4.8 2.6-7.1 7.7-8.2 13.1-.5-.7-2.3-.4-2.6.5-.1.3-.2.6-.3 1-.2.2-.3.4-.3.6v.2h-.2c0-.1 0-.2.1-.3.1-.1.2-.2.3-.4.6-2.3 1.2-4.6 1.9-6.8.3-.8-2.5-.4-2.8.4-.4 1.2-.8 2.4-1.1 3.6-.2.1-.4.2-.4.3v.1c-.1-.1-.3-.2-.5-.2v-1c0-.4-2.8 0-2.8.8V15c-.2.1-.3.2-.5.3l-.2.2c-.1.1-.1.2-.1.2v.1l-.1.1c-.1.1-.2.3 0 .5s.5.2.7.2h.1v.5h-.7l-.4-.1c0-.4-.7-.5-1.4-.3v-.1c-.1-.6-.2-1.2-.2-1.8.2-.1.5-.2.7-.3.2-.1.3-.2.3-.4v-.2c0-.2-.4-.2-.5-.2h-.6c-.1-1.3-.1-2.6-.1-3.9 0-.8-2.8-.3-2.8.8 0 1.8 0 3.6.2 5.3h-.3v-1.5c0-1-1.3-1.2-2.1-.8.3-.3.5-.6.4-1-.4-1.4-.8-2.8-1-4.3-.2-1.4-3-.7-2.8.8.2 1.5.6 2.9 1 4.3.2.8 1.3.9 2.1.5-.2.2-.4.5-.4.8v.6c-.3-.3-.5-.3-.9-.3-1.1 0-1.7.9-1.4 1.5-.2 0-.3-.1-.5-.1-.4-1.2-.7-2.5-.7-3.8 0-.9-1.3-1-2.1-.7v-.2c-.4-.8-.6-1.7-.8-2.5-.3-1.3-3.2-.6-2.8.8.2.6.3 1.3.5 1.9h-.1c-.3.1-.6.2-.9.4-.8.1-1.8.6-1.8 1.2.1.5.1 1 .2 1.4-.4.1-1 .1-1.5.2-.3-.8-.5-1.6-.6-2.4-.1-.9-1.6-.9-2.3-.3-.8-2.1-1.8-4-3.1-5.8-2.7-3.4-7.2-4.6-11.3-3.7-1.9.4-3.7 1.2-5 2.6-1.2 1.4-1.4 3.1-1.2 4.8.2 1.5.6 4 1.6 6-.4 0-.7 0-.9.1-.3.1-.6.2-.8.4-1.9 0-3.9 0-5.8-.1-4.2-.2-8.3-.9-12.5-.7-.9 0-1.5.7-1.5 1.3-1 .5-1.7 1.3-2.1 2.3-1.7-1.1-3.5-2.3-5.3-3.2-.7-.4-3.3.7-2.3 1.2 1.8.9 3.6 2.1 5.3 3.2.5.3 1.3.1 1.8-.1 0 0 .1 0 .2-.1-.3 1.4-.2 3.1.2 4.5 0 .1.1.2.2.3v1.2c-.4.2-.7.5-.8.8-.2 1.4-.3 2.8-.3 4.2-.3.2-.5.5-.5.8-.2 3.3 0 6.7.5 10 .2 2.7.7 5.3 1.2 8 .1.4.1.8.2 1.3-.3 1.1-.4 2.4-.2 3.5-.9.2-1.7.9-1.2 1.6.8 1.2 1.6 2 2.6 2.6-.6-.1-1.4.1-1.9.6-.8.8-1.7 1.5-2.5 2.3-.4.4-.3.9.3 1.1.7.2 1.5-.1 2-.5.8-.8 1.7-1.5 2.5-2.3.2-.2.3-.5.2-.7 3.2 1.7 7.2 1.3 11.1.9-.9 1.6-1.5 3.3-2.2 5-.3.7 2.5.4 2.8-.4.6-1.7 1.2-3.3 2.1-4.9 3.7.1 7.5.1 11.2.1.1.2.4.3.7.3 3.3.3 6.5-.1 9.7-.7 4.8-.2 9.6-.5 14.4-.8 7.5-.2 15.1-.3 22.6-.3l.3.3c.3.3.6.3 1 .3h.2c.7 0 1.4.1 2.1.1.2 0 .3.1.6 0 .8.1 1.6.1 2.3.2.2.2.5.3.8.4 3.8.3 7.6.5 11.4.7.1.2.5.3.8.3 7.1.1 15.3 2.8 21.6-1.7.5-.4.3-.9-.3-1h-.3c1.2-2.8 2.2-5.6 2.9-8.6.4-.2.6-.5.6-.9 0-1.2.2-2.4.4-3.6.2-.9.3-1.8.4-2.7.4-2.2.8-4.4 1-6.5 2.3-1.1 4.5-2.3 6.6-3.8 1.6-1.2-.8-1.9-1.8-1.2zm-55.4-15l-.1.1c.1-.3.1-.6.2-.9h.1c0 .2-.1.5-.2.8z"/><path d="M63.3 12.6c.1.2.6.2.8.2.4 0 .8-.1 1.1-.2.4-.2 1.1-.6.8-1.1-.4-.6-.6-1.2-1-1.8-.1-.2-.6-.2-.8-.2-.4 0-.8.1-1.1.2-.4.2-1.1.6-.8 1.1.3.6.6 1.3 1 1.8zm-42.6-1.7c.2.6 1.1.6 1.6.5.5-.1 1.4-.6 1.2-1.3-.2-.6-.4-1.3-.9-1.8s-1.3-.4-1.9-.2c-.4.2-1.2.8-.7 1.3.4.6.5.9.7 1.5zm10 3c.8 0 3.1-1.3 1.2-1.3-.9 0-3.1 1.3-1.2 1.3zm91.9-1.6c.3.1.7 0 1.1-.1.3-.1.7-.2.9-.5.4-.4.7-.7 1-1.2.1-.2.2-.4 0-.6-.2-.2-.5-.2-.8-.3-.4 0-.8.1-1.1.2-.3.1-.6.3-.8.6-.1.2-.2.4-.4.5l-.2.2c-.2.2-.3.4-.3.6.1.4.3.5.6.6zm13.3 5.4c.6-.1 1.4-.2 1.9-.7 1.3-1.1 2.6-2.2 3.6-3.6.3-.4-1-.2-1.1-.2-.5.1-1.3.3-1.7.7-.9 1.3-2.2 2.3-3.4 3.4-.5.4.4.4.7.4zm10.8 27.1h-4.9c-.6 0-1.5.5-1.6 1.1-.1.7.8.9 1.3.9h4.9c.6 0 1.5-.5 1.6-1.1.1-.7-.7-.9-1.3-.9zM57 60.8c-.5.1-1.4.3-1.6.8-.5 1.3-1 2.6-1.4 3.9-.2.7 2.6.3 2.8-.5.4-1.3.8-2.6 1.4-3.9.2-.5-1-.3-1.2-.3zm4.6 2.6c-.3 0-.7.1-1 .2-.3.1-.7.2-1 .4-.1.1-.3.2-.3.4v.3c0 .1-.1.2-.1.3-.1.1-.1.2 0 .3.2.1.5.1.7.1.4 0 .7-.1 1.1-.3.2-.1.6-.2.8-.4.1-.2.2-.3.3-.5v-.5c0-.3-.4-.3-.5-.3zm55.1 3.7c-.4-.7-3 .3-2.8.8.8 1.6 1.9 3.1 2.9 4.7.4.7 3-.4 2.8-.8-1-1.6-2.1-3.1-2.9-4.7zm4-2.4c-.3-.6-1.1-.6-1.6-.4-.4.1-1.5.6-1.2 1.2.4.8.8 1.6 1.2 2.3.3.6 1.1.6 1.6.4.4-.1 1.5-.6 1.2-1.2-.4-.7-.8-1.5-1.2-2.3zM5.7 43.1c-1.5.4-3 .6-4.5 1-.5.1-1.3.6-1.2 1.3.2.7 1.1.7 1.7.6 1.5-.4 3-.6 4.5-1 .5-.1 1.3-.7 1.2-1.3-.3-.7-1.2-.7-1.7-.6z"/><path d="M43.8 40.1c-.1-2.7-.5-5.4-.5-8.1 0-2.2.4-4.5-.4-6.6 0-.2.1-.5.1-.7.2-1.1-3.3-.5-3.8.5-.3.3-.5.6-.4 1 0 .1.1.2.1.3-.7 3.2-1.6 6.4-2.6 9.5-.4 1.2-.9 2.4-1.3 3.6-.6-1.1-1.2-2.2-1.7-3.4-1.4-3.5-2.6-7-4.3-10.3.2-1.5-3.2-1.4-3.9 0-.8 1.7-.7 3.4-.4 5.3.3 2.1.4 4.1.4 6.2 0 4 .4 8 .4 12-.4.4-.5.9-.1 1.4l.6.6c.9.7 3.5.1 3.5-1.3 0-4.2-.3-8.3-.4-12.5v-1.2c.1.1.1.3.2.4.6 1.6 1.3 3.2 2.2 4.7.9 1.5 1.3 3.1 1.8 4.7-.2.2-.3.5-.2.7 0 .2.1.3.3.4.6.6 1.9.3 2.5 0 .3-.1.6-.3.8-.4.3-.2.9-.7.7-1.2 0-.1-.1-.2-.1-.3.5-1.3.7-2.6 1-4 .3-1.4.8-2.8 1.3-4.2.1.6.1 1.3.2 1.9.2 2.6 0 5.1 0 7.7 0 .9.1 1.6.2 2.5.1.3.4 1.8.3 1.9-.6.6-.4 1.3.4 1.4.9.2 2.1-.1 2.8-.7 1.2-1.1.6-2.9.4-4.3-.6-2.4-.1-5.1-.1-7.5zm8.4.7c-.1-2-.8-3.9-.8-5.9 0-2.3.2-4.6-.2-6.9-.1-.7-4.1.1-4 1.1.3 2.1.2 4.3.2 6.4 0 2.1.5 3.9.7 6 .3 2.1-.1 4.2.1 6.3.1 1 .8 2.8.1 3.6-.4.5 1.5.3 1.6.3.8-.1 1.8-.4 2.3-1 .7-.8.2-2.4.1-3.4-.2-2.3 0-4.4-.1-6.5zm16.5-3.4c-2.1-2.8-5.9-.8-8.6-1.6-1.4-.4-1.4-2.3-1.4-3.4 0-1.4-.1-2.8-.3-4.2-.1-1.1 0-2.1.8-2.9.1-.1.9-.3.8-.3.4-.1.7-.1 1.1-.1 1.6-.1 4.7.2 4.1 2.5-.3 1 3.6.4 3.9-.6 1.2-4.6-7.4-3.7-9.8-3.1-2.2.6-4.7 1.9-4.8 4.4-.1 1.2.3 2.4.3 3.6.1 1.4-.2 2.8.3 4.2 1.1 3 5.6 1.6 7.8 1.8 3.9.3 2.7 5.5 2.8 8 0 1.3 1.2 3.5.2 4.5-.6.7-2 .7-2.8.8-.8.1-2.2.3-2.8-.5-1-1.4.1-3.8-.1-5.5-.2-1-4.2-.1-4 1 .3 2.7-1.4 6.2 2.4 6.7 2.5.3 5.2-.2 7.6-.9 1.2-.4 2.3-1 3.3-1.8 1-.9.7-2.4.4-3.6-.7-3 .7-6.4-1.2-9zm17.5-.2c-.1-3.8-.7-7.6-.7-11.4 0-2-4-1.3-4 .3 0 3.6.5 7.2.7 10.9v.2c-2 0-3.9.2-5.9.2.2-4.7-.6-9.3-.4-14 0-.6-3.9-.1-4 1.1-.2 4.5.6 9 .5 13.5-.1 2.2-.2 4.3-.3 6.5 0 1.1.2 2.2.3 3.3.1 1 .5 2.4.2 3.3-.2.8 3.6.3 3.9-.7.5-1.8-.2-4.1-.4-5.9-.2-1.7 0-3.5.1-5.3 2-.1 4.1-.3 6.1 0l.3 4.2c.1 1.2.2 2.3.2 3.5 0 1 .1 2.5-.2 3.5-.8 2.1 3.2 1.9 3.8.4.7-1.9.5-4.2.4-6.2-.2-2.4-.6-4.9-.6-7.4zm17 4.6c-.9-2.8-2.4-5.2-3.6-7.9 1-2 2-3.9 3-5.9.8-1.8 1.5-3.9 3.1-5.1.6-.5.6-.9-.3-1-.9-.1-2.1.2-2.8.7-1.5 1.2-2.4 2.6-3.2 4.3-1 2.1-1.9 4.1-3 6.1-.1.1-.2.3-.2.4-.5.3-.8.8-.6 1.3-.8 1.6-1.6 3.1-2.5 4.7-.3-5.6-1-11.2-1.2-16.8 0-1.3-4-.5-4 1.1.2 6.9 1.2 13.8 1.3 20.8v.1c-.3.3-.2.5.1.6 0 1.8-.1 3.5-.2 5.3-.5.8.5 1.1 1.1 1.1h.1c.7 0 2.6-.4 2.7-1.4.2-2.1.3-4.2.2-6.3 1.6-1.7 2.9-3.7 4.1-5.7.8 1.5 1.5 3 2 4.6.9 2.8 2.3 5.3 3.2 8.1.5 1.8 4.5.7 4-1.1-.9-2.7-2.3-5.3-3.3-8zm23.8-4.7c-.2-.8-1.4-.9-2.3-.8v-1c-.1-2.7-.2-5.4-.4-8.1-.2-2.5-1.6-3.4-4-3.3-2.4.1-5.3.5-7.6 1.4-2.6 1-4.1 3-4.6 5.7-.6 3 .2 6.3.4 9.3.2 3.5.1 7.1.1 10.6 0 .6 4 0 4-1.1v-8.4c0-.8-.1-1.6-.1-2.5 1.4-.6 3.7 0 5.1.1 1.1.1 2.2-.2 3.3-.3 0 2.3.1 4.7.2 7 0 1.2.5 3.6-.4 4.6-.4.5 1.5.3 1.6.3.8-.1 1.8-.4 2.3-1.1 1-1.1.5-3.8.4-5.2-.1-1.9-.1-3.9-.1-5.8 1 .2 2.3-.6 2.1-1.4zm-14.8-.2c-.1-1.3-.2-2.5-.3-3.8-.2-2.4.1-5.6 2.3-7.1.6-.4 1.7-.3 2.4-.4 1-.2 2-.4 2.9.2 1.2.8.9 3.7.9 4.9 0 2 .2 4 .3 6.1-.6.1-1.1.1-1.7.1-2.3-.1-4.6-.4-6.8 0zM48.8 25.2c.5-.1 1.1-.2 1.5-.5.1-.1.2-.1.3-.2.5-.3 1-.8.7-1.4-.5-1.1-.4-2.3-.4-3.4 0-1-1-1.3-1.8-1.2-.7.1-2.2.6-2.2 1.5 0 1-.1 2 .1 3 0 .1-.1.2-.1.4-.1.2 0 .4.1.6v.4c.1.2.2.4.4.5.4.3.9.3 1.4.3z" fill="#fff"/></g></switch></svg>