<svg xmlns="http://www.w3.org/2000/svg" viewBox="0 0 1150 23"><switch><g><path d="M1150 23c-9 0-13.7-4.6-17.5-8.3-3.4-3.3-5.9-5.7-11.2-5.7-5.4 0-7.8 2.4-11.2 5.7-3.8 3.7-8.5 8.3-17.5 8.3s-13.7-4.6-17.5-8.3c-3.4-3.3-5.9-5.7-11.2-5.7s-7.8 2.4-11.2 5.7c-3.8 3.7-8.5 8.3-17.5 8.3s-13.7-4.6-17.5-8.3c-3.4-3.3-5.9-5.7-11.2-5.7-5.4 0-7.8 2.4-11.2 5.7-3.8 3.7-8.5 8.3-17.5 8.3s-13.7-4.6-17.5-8.3c-3.4-3.3-5.9-5.7-11.2-5.7-5.4 0-7.8 2.4-11.2 5.7-4.2 3.7-8.9 8.3-17.9 8.3s-13.7-4.6-17.5-8.3c-3.4-3.3-5.9-5.7-11.2-5.7-5.4 0-7.8 2.4-11.2 5.7-3.8 3.7-8.5 8.3-17.5 8.3s-13.7-4.6-17.5-8.3c-3.4-3.3-5.9-5.7-11.2-5.7-5.4 0-7.8 2.4-11.2 5.7-4 3.7-8.7 8.3-17.7 8.3s-13.7-4.6-17.5-8.3c-3.4-3.3-5.9-5.7-11.2-5.7-5.4 0-7.8 2.4-11.2 5.7-3.8 3.7-8.5 8.3-17.5 8.3s-13.7-4.6-17.5-8.3c-3.4-3.3-5.9-5.7-11.2-5.7s-7.8 2.4-11.2 5.7C703.8 18.4 699 23 690 23s-13.7-4.6-17.5-8.3c-3.4-3.3-5.9-5.7-11.2-5.7-5.4 0-7.8 2.4-11.2 5.7-3.8 3.7-8.5 8.3-17.5 8.3s-13.7-4.6-17.5-8.3c-3.4-3.3-5.9-5.7-11.2-5.7-5.4 0-7.8 2.4-11.2 5.7-3.8 3.7-8.5 8.3-17.5 8.3s-13.7-4.6-17.5-8.3c-3.4-3.3-5.9-5.7-11.2-5.7s-7.8 2.4-11.2 5.7c-3.8 3.7-8.5 8.3-17.5 8.3s-13.7-4.6-17.5-8.3c-3.4-3.3-5.9-5.7-11.2-5.7-5.4 0-7.8 2.4-11.2 5.7-3.8 3.7-8.5 8.3-17.5 8.3s-13.7-4.6-17.5-8.3C439.5 11.4 437 9 431.7 9c-5.4 0-7.8 2.4-11.2 5.7-3.8 3.7-8.5 8.3-17.5 8.3s-13.7-4.6-17.5-8.3c-3.4-3.3-5.9-5.7-11.2-5.7-5.4 0-7.8 2.4-11.2 5.7-3.8 3.7-8.5 8.3-17.5 8.3s-13.7-4.6-17.5-8.3c-3.4-3.3-5.9-5.7-11.2-5.7s-7.8 2.4-11.2 5.7c-3.8 3.7-8.5 8.3-17.5 8.3s-13.7-4.6-17.5-8.3c-3.4-3.3-5.9-5.7-11.2-5.7-5.4 0-7.8 2.4-11.2 5.7-3.8 3.7-8.5 8.3-17.5 8.3s-13.7-4.6-17.5-8.3c-3.4-3.3-5.9-5.7-11.2-5.7-5.4 0-7.8 2.4-11.2 5.7-3.8 3.7-8.5 8.3-17.5 8.3s-13.7-4.6-17.5-8.3C152.5 11.4 150 9 144.7 9c-5.4 0-7.8 2.4-11.2 5.7-4.7 3.7-9.5 8.3-18.5 8.3s-13.7-4.6-17.5-8.3C94.1 11.4 91.6 9 86.3 9c-5.4 0-7.8 2.4-11.2 5.7-3.8 3.7-8.5 8.3-17.5 8.3s-13.7-4.6-17.5-8.3c-3.5-3.3-6-5.7-11.3-5.7-5.4 0-7.8 2.4-11.2 5.7C13.7 18.4 9 23 0 23v-9c5.4 0 7.8-2.4 11.2-5.7C15 4.6 19.7 0 28.8 0c9 0 13.7 4.6 17.5 8.3 3.4 3.3 5.9 5.7 11.2 5.7 5.4 0 7.8-2.4 11.2-5.7C72.5 4.6 77.3 0 86.3 0c9 0 13.7 4.6 17.5 8.3 3.4 3.3 5.9 5.7 11.2 5.7 5.4 0 7.8-2.4 11.2-5.7C130 4.6 134.7 0 143.7 0s13.7 4.6 17.5 8.3c3.4 3.3 5.9 5.7 11.2 5.7 5.4 0 7.8-2.4 11.2-5.7 3.8-3.7 8.5-8.3 17.5-8.3s13.7 4.6 17.5 8.3c3.4 3.3 5.9 5.7 11.2 5.7 5.4 0 7.8-2.4 11.2-5.7 3.8-3.7 8.5-8.3 17.5-8.3s13.7 4.6 17.5 8.3c3.4 3.3 5.9 5.7 11.2 5.7 5.4 0 7.8-2.4 11.2-5.7 3.8-3.7 8.5-8.3 17.5-8.3s13.7 4.6 17.5 8.3c3.4 3.3 5.9 5.7 11.2 5.7 5.4 0 7.8-2.4 11.2-5.7 3.8-3.7 8.5-8.3 17.5-8.3s13.7 4.6 17.5 8.3c3.4 3.3 5.9 5.7 11.2 5.7s7.8-2.4 11.2-5.7C417 4.6 421.7 0 430.7 0s13.7 4.6 17.5 8.3c3.4 3.3 5.9 5.7 11.2 5.7 5.4 0 7.8-2.4 11.2-5.7 3.8-3.7 8.5-8.3 17.5-8.3s13.7 4.6 17.5 8.3c3.4 3.3 5.9 5.7 11.2 5.7 5.4 0 7.8-2.4 11.2-5.7 3.8-3.7 8.5-8.3 17.5-8.3s13.7 4.6 17.5 8.3c3.4 3.3 5.9 5.7 11.2 5.7 5.4 0 7.8-2.4 11.2-5.7 3.8-3.7 8.5-8.3 17.5-8.3s13.7 4.6 17.5 8.3c3.4 3.3 5.9 5.7 11.2 5.7 5.4 0 7.8-2.4 11.2-5.7 3.8-3.7 8.5-8.3 17.5-8.3s13.7 4.6 17.5 8.3c3.4 3.3 5.9 5.7 11.2 5.7 5.4 0 7.8-2.4 11.2-5.7C704 4.6 708.7 0 717.7 0s13.7 4.6 17.5 8.3c3.4 3.3 5.9 5.7 11.2 5.7 5.4 0 7.8-2.4 11.2-5.7 3.8-3.7 8.5-8.3 17.5-8.3s13.7 4.6 17.5 8.3c3.4 3.3 5.9 5.7 11.2 5.7 5.4 0 7.8-2.4 11.2-5.7 5-3.7 9.7-8.3 18.8-8.3 9 0 13.7 4.6 17.5 8.3 3.4 3.3 5.9 5.7 11.2 5.7s7.8-2.4 11.2-5.7c3.8-3.7 8.5-8.3 17.5-8.3s13.7 4.6 17.5 8.3c3.4 3.3 5.9 5.7 11.2 5.7s7.8-2.4 11.2-5.7C935 4.6 939.7 0 948.8 0s13.7 4.6 17.5 8.3c3.4 3.3 5.9 5.7 11.2 5.7s7.8-2.4 11.2-5.7c3.8-3.7 8.5-8.3 17.5-8.3s13.7 4.6 17.5 8.3c3.4 3.3 5.9 5.7 11.2 5.7 5.4 0 7.8-2.4 11.2-5.7 3.8-3.7 8.5-8.3 17.5-8.3s13.7 4.6 17.5 8.3c3.4 3.3 5.9 5.7 11.2 5.7s7.8-2.4 11.2-5.7c3.8-3.7 8.5-8.3 17.5-8.3s13.7 4.6 17.5 8.3c3.4 3.3 5.9 5.7 11.2 5.7v9z" fill="#e6e7e8"/></g></switch></svg>