<svg xmlns="http://www.w3.org/2000/svg" width="22" height="21" viewBox="0 0 22 21"><g transform="translate(0)"><path d="M22,11.955c-.013-2.357-.348-4.713-.306-7.022-.024-.776-.087-1.511-.154-2.243a5.023,5.023,0,0,1-.155-1.045c-.263-.168-.223-.63-.461-.823A8.013,8.013,0,0,0,19.16.6C18.5.572,17.892.484,17.24.448,15.284.347,13.225.373,11.18.373A44.932,44.932,0,0,1,5.424,0H3.2c-.1,0-.107.1-.23.075a9.617,9.617,0,0,0-1.611.3,2.885,2.885,0,0,1-.69.3C.53.862.149.815.055,1.045c-.188.209.186.445,0,.6v.9c.175.128.027.571.076.822v.972C.113,5.6.266,6.695.207,8a37.116,37.116,0,0,1,.077,9.266,13.37,13.37,0,0,1,.46,1.719,7.416,7.416,0,0,0,.69,1.5,6.981,6.981,0,0,0,1.918.224A4.478,4.478,0,0,0,4.5,21c2.873-.207,5.554-.152,8.517-.225a35.852,35.852,0,0,0,8.363-.223c.2-.132.129-.521.23-.748-.057-.379.209-.442.229-.747C21.978,16.7,22.011,14.344,22,11.955ZM8.877,5.828a9.767,9.767,0,0,1,2.455-.3,11.063,11.063,0,0,1,1.917.448c.118.181-.246.538.156.673v.075c.059.017.151,0,.153.075a1.972,1.972,0,0,1,1.075.373c.455.054.542.469,1.149.374a2.082,2.082,0,0,0-.076.822,11.4,11.4,0,0,1,.306,4.185,1.8,1.8,0,0,0-.306.672c-.314.317-.486.773-.845,1.045a1.075,1.075,0,0,1-.459.525c-.117.21-.208.445-.462.522a1,1,0,0,1-.843-.075,3.517,3.517,0,0,0-1.228.6c-.825-.094-1.666-.172-2.456-.3a2,2,0,0,0-.844-.3,2.03,2.03,0,0,0-.844-.448c-.1-.125-.341-.116-.461-.224-.2-.03-.23-.223-.46-.225-.119-.406-.448-.608-.538-1.044a5.408,5.408,0,0,1-.46-1.2,12.875,12.875,0,0,1,.383-3.737c.351-.582.787-1.077,1.151-1.644.252.021.369-.089.384-.3.308.052.438-.071.69-.074C8.674,6.278,8.686,5.966,8.877,5.828ZM7.189,3.137a3.146,3.146,0,0,1-.076-1.045c-.007-.28.281-.274.307-.523,0-.073-.094-.058-.154-.075.127-.144.708-.1.843,0,.133.529-.358.448-.537.672.011.165.325.031.461.075.03.841-.059,1.473,0,2.168H7.573c-.007.23.231.222.461.224-.059.282.093.357.076.6-.227.151-.723.042-1.073.075C6.932,4.721,7.275,3.952,7.189,3.137ZM6.5,1.569c.089-.013.134.016.153.075.181.249.01.672-.077.9C6.4,2.364,6.548,1.869,6.5,1.569Zm.154,1.793c-.134-.069-.171-.233-.154-.449C6.633,2.983,6.668,3.148,6.653,3.363Zm0,1.345c-.06.137-.083-.044-.077-.15C6.635,4.422,6.658,4.6,6.653,4.707ZM6.5,4.933c.176-.025.085.215.229.223-.009.19-.286.176-.384.075C6.385,5.121,6.46,5.042,6.5,4.933ZM4.12,3.736c.006-.106.013-.211-.077-.224-.074-.722.131-1.393,0-1.942.253-.153.777-.041,1.151-.076V2.614a.5.5,0,0,1-.383.075c-.055.277.326.13.383.3a8.894,8.894,0,0,0,.154,2.391c-.571-.058-.916.105-1.457.075.1-.6-.019-1.413.536-1.569C4.415,3.746,4.168,3.839,4.12,3.736Zm-.537,0c-.206.021-.219-.526-.078-.6C3.837,3.144,3.758,3.63,3.584,3.736Zm-.154.972a3.567,3.567,0,0,0,.076-.671C3.736,4.048,3.769,4.793,3.43,4.707Zm.23-2.018c-.267.053-.276-.262-.155-.373C3.771,2.263,3.781,2.578,3.661,2.689Zm0-1.12c.032.156-.053.2-.077.3-.178.023-.086-.216-.231-.225C3.378,1.541,3.545,1.581,3.661,1.569ZM3.43,5.231c.15-.03.111.34-.078.223A.353.353,0,0,0,3.43,5.231ZM2.739,1.569c.029.255-.444.315-.383,0Zm-1,.075c-.034.216-.329.176-.383.373C1.142,1.85,1.443,1.556,1.741,1.644Zm-.46.747c.227-.2.455-.4.69-.6-.021-.12.072-.129.077-.223H2.28c.1.375-.264.291-.308.523.021.12-.073.129-.076.223a4.506,4.506,0,0,1,.076.973c-.273.008-.279.276-.613.223A11.145,11.145,0,0,1,1.281,2.391ZM1.358,5.6V4.036c.2-.182.4-.359.613-.525.3.482.181,1.37.46,1.868A9.1,9.1,0,0,1,1.358,5.6Zm18.414,10.91a20.566,20.566,0,0,1-.382,2.765c-2.921.121-6.084,0-8.977.151-.2.044-.277-.031-.231-.224-.256,0-.261.243-.537.224.2-.331.442-.884.153-1.271-.805.013-.805.809-1.149,1.271-.693-.051-1.149.125-1.842.074.182-.694.757-1.005.921-1.718-.4-.54-1,.136-1.227.448-.206.473-.563.8-.768,1.27h-1c.241-.461.494-.911.766-1.345.173-.5.632-.729.69-1.346-.159-.276-.424-.029-.69,0-.124.179-.275.33-.384.523a8.418,8.418,0,0,0-.69,1.122c-.183.2-.339,0-.536.222-.393.268-.587.725-1,.973-.176-.059.039-.351.156-.374.045-.178-.1-.541.076-.6a2.34,2.34,0,0,1,.383-.9c.12-.73.527-1.18.691-1.868-.565.1-.681.632-1,.972a7.212,7.212,0,0,0-.69,1.271c-.176-.129-.028-.571-.077-.823.123-.577.3-1.1.384-1.719a2.513,2.513,0,0,0,.23-.821.685.685,0,0,0-.078-.749.544.544,0,0,0-.46.3c-.193-.031-.2.5-.306.3-.045-2.546-.456-4.738-.461-7.323.026-.325-.185-.417-.23-.673,1.646.028,3.154.09,4.834.224a3.372,3.372,0,0,1-.307.373,1.919,1.919,0,0,0-.382.3A12.166,12.166,0,0,0,5.041,13.6a4.33,4.33,0,0,0,1,1.419c.916.477,1.651,1.131,2.532,1.645a14.682,14.682,0,0,0,5.6,0,4.379,4.379,0,0,0,.692-.374c1.378-1.223,2.782-2.421,2.992-4.784V10.161a4.806,4.806,0,0,0-1.766-3.586c.335-.217,1.111.042,1.688.075a5.979,5.979,0,0,0,.69,0,9.115,9.115,0,0,1,1.459,0c.145.183.114.535.229.748-.062,1.657-.194,3.247-.154,5.007.1.447.128.971.23,1.418A16.165,16.165,0,0,1,19.772,16.514Zm.383-10.985c-.645-.118-1.245-.28-1.917-.373.073-.328.807-.01,1-.223.389-.22.3-.907.307-1.5a4.843,4.843,0,0,0,.077-1.046c-.405-.936-1.8-.414-2.917-.448A5.741,5.741,0,0,0,16.4,4.558c.171.482,1.035.288,1.534.449-.14.327-.7.057-1,.075-.3-.082-.715-.051-1-.149-2.31.076-4.331,0-6.6.149A16.479,16.479,0,0,0,9.26,1.494h3.145c-.347.358-.922.5-1.3.822a3.164,3.164,0,0,0-1.15.9c.252.131.541-.241.766-.373.36-.073.485-.375.844-.448a5.988,5.988,0,0,1,1.688-.9,3.673,3.673,0,0,1,1,.075c1.3.008,2.482.125,3.836.075a13.391,13.391,0,0,1,1.994.3,6.719,6.719,0,0,1,.308.9A24.481,24.481,0,0,1,20.155,5.529ZM14.249,1.868c.111-.047-.009-.091,0,0Zm0,0a3.33,3.33,0,0,0-1.383.671A3.379,3.379,0,0,0,14.249,1.868Zm1.073.6c.111-.047-.008-.091,0,0Zm-1.765.9a6.073,6.073,0,0,0,1.765-.9c-.441.018-.6.315-1,.373C14.107,3.051,13.718,3.095,13.558,3.363Zm-.691-.823c-.111.046.007.091,0,0Zm-.689.6c.111-.044-.008-.09,0,0Zm-.076.076c.064.014.071-.031.076-.076C12.111,3.124,12.1,3.168,12.1,3.213Zm-.079.075c.066.013.074-.03.079-.075C12.034,3.2,12.028,3.241,12.022,3.288Zm-.843.6a2.067,2.067,0,0,0,.843-.6A2.06,2.06,0,0,0,11.18,3.885Zm2.3.973c.539-.048.757-.409,1.228-.524.287-.293.792-.375,1-.747-.566.022-.774.393-1.229.523C14.19,4.4,13.718,4.516,13.481,4.858Zm-2.3-.973c-.319-.072-.015.224,0,0Zm-.539.374c.022.021.117-.036.077-.076C10.7,4.163,10.6,4.22,10.641,4.259Zm2.84.6c-.111.045.007.09,0,0ZM12.329,6.65c-.224-.228-.683-.23-1-.373A5.532,5.532,0,0,0,9.568,6.5l-.92.447a4.117,4.117,0,0,1-.768.524c-.207.22-.356.5-.691.6,0,.22-.175.277-.306.373-.091.113-.1.307-.229.375-.007.118.035.285-.077.3a17.625,17.625,0,0,0,.69,4.111c.29.614.985.833,1.457,1.271a6.553,6.553,0,0,0,2.149.523,3.271,3.271,0,0,1,.921-.075,5.19,5.19,0,0,0,2.84-1.419,1.536,1.536,0,0,1,.46-.672c-.257-.66.3-1.081.46-1.571a8.19,8.19,0,0,0-.614-3.362c-.259-.57-.93-.74-1.381-1.121-.06-.017-.152,0-.153-.075A1.4,1.4,0,0,0,12.329,6.65ZM8.877,10.909c-.114-.062-.11-.24-.154-.373C8.982,10.46,8.843,10.769,8.877,10.909Zm.076.3c.041-.116.08-.006.078.074C8.99,11.4,8.95,11.288,8.953,11.21Zm.461-2.019c.015-.085.077-.041.077,0C9.477,9.276,9.414,9.233,9.414,9.191ZM11.1,7.1c-.205.254.041.567.078.823C10.872,7.884,10.6,7.048,11.1,7.1Zm.384,3.885c-.04-.037.056-.1.077-.075C11.6,10.948,11.508,11.006,11.486,10.984Zm.767,2.84c.034-.107.067.008.154,0A.078.078,0,0,1,12.253,13.824Zm2.224-2.541c-.235-.056-.146.2-.383.15a1.528,1.528,0,0,1,.231-.448C14.461,11,14.5,11.113,14.477,11.284Zm-1.15-3.737a2.788,2.788,0,0,1,.613.375,1.918,1.918,0,0,0,.384.521,19.725,19.725,0,0,1,.153,2.317c-.26.1-.443.266-.689.375a4.573,4.573,0,0,1-1.918-.45c-.173-.254-.359-.5-.538-.746V8.893a4.113,4.113,0,0,0,.461-.6c.229-.125.513-.2.459-.6a.362.362,0,0,1-.076-.224,2.018,2.018,0,0,1,.383.224C12.886,7.715,12.973,7.5,13.327,7.547Z" fill="#231f20"/></g></svg>