<svg xmlns="http://www.w3.org/2000/svg" viewBox="0 0 101.6 34.1"><switch><g><path d="M19.1 21.5c-.1-2.7-.5-5.3-.5-8 0-2.2.4-4.4-.4-6.5 0-.2.1-.5.1-.7.2-1-3.3-.5-3.8.5-.3.3-.5.6-.4 1 0 .1.1.2.1.3-.7 3.2-1.6 6.3-2.6 9.4-.4 1.2-.9 2.3-1.3 3.5-.6-1.1-1.2-2.2-1.6-3.4-1.4-3.4-2.6-6.9-4.3-10.2.2-1.5-3.2-1.4-3.9 0-.8 1.7-.7 3.4-.4 5.2.3 2 .4 4 .4 6.1 0 4 .4 7.9.4 11.9-.4.4-.5.9-.1 1.4.2.2.4.4.6.5 1 .7 3.6.1 3.6-1.3 0-4.1-.3-8.2-.4-12.4v-1.2c.1.1.1.3.2.4.6 1.6 1.3 3.2 2.2 4.7.9 1.5 1.3 3.1 1.8 4.7-.2.2-.3.5-.2.7 0 .2.1.3.3.4.6.5 1.8.3 2.5 0 .3-.1.6-.3.8-.4.3-.2.9-.7.7-1.2 0-.1-.1-.2-.1-.3.5-1.3.7-2.6 1-3.9.3-1.4.8-2.8 1.3-4.1.1.6.1 1.2.2 1.9.2 2.6 0 5.1 0 7.6 0 .8.1 1.6.2 2.5.1.3.4 1.8.3 1.9-.8.5-.6 1.1.2 1.3.9.2 2.1-.1 2.8-.7 1.2-1.1.6-2.8.4-4.2-.5-2.4 0-5-.1-7.4zm8.4.7c-.1-2-.8-3.9-.8-5.9 0-2.3.2-4.6-.2-6.9-.1-.7-4.1.1-3.9 1 .3 2.1.2 4.2.2 6.4 0 2 .5 3.9.7 5.9.3 2.1-.1 4.2.1 6.2.1 1 .8 2.7.1 3.6-.4.5 1.5.3 1.6.3.8-.1 1.8-.4 2.3-1 .7-.8.2-2.4.1-3.4-.3-2-.1-4.2-.2-6.2zm16.3-3.3c-2.1-2.8-5.9-.8-8.6-1.5-1.4-.4-1.4-2.3-1.4-3.4 0-1.4-.1-2.7-.3-4.1-.1-1.1 0-2.1.7-2.9.1-.1.9-.3.8-.3.4-.1.7-.1 1.1-.1 1.5-.1 4.6.2 4 2.5-.3 1 3.6.4 3.9-.6 1.2-4.6-7.3-3.7-9.7-3.1-2.2.6-4.6 1.8-4.8 4.4-.1 1.2.3 2.4.3 3.6.1 1.4-.2 2.8.3 4.1 1.1 3 5.5 1.6 7.8 1.7 3.8.3 2.7 5.5 2.7 7.9 0 1.3 1.2 3.4.2 4.5-.6.7-2 .7-2.8.8-.8.1-2.2.3-2.7-.5-1-1.4.1-3.8-.1-5.4-.1-.9-4.1-.1-3.9 1 .3 2.6-1.4 6.1 2.4 6.6 2.4.3 5.2-.2 7.5-.9 1.2-.4 2.3-.9 3.2-1.8 1-.9.7-2.3.4-3.5-.5-3.1.9-6.5-1-9zm17.4-.2c-.1-3.8-.7-7.5-.7-11.3 0-2-4-1.3-4 .3 0 3.6.5 7.2.7 10.8v.2c-1.9 0-3.9.2-5.9.2.2-4.6-.6-9.2-.4-13.9 0-.6-3.9-.1-3.9 1-.2 4.5.6 8.9.5 13.4-.1 2.1-.2 4.3-.3 6.4 0 1.1.2 2.2.3 3.3.1 1 .5 2.3.2 3.3-.2.8 3.6.3 3.9-.7.5-1.8-.2-4-.4-5.8-.2-1.7 0-3.5.1-5.2 2-.1 4.1-.3 6.1 0 .1 1.4.2 2.8.3 4.1.1 1.2.2 2.3.2 3.5 0 1 .1 2.5-.2 3.5-.8 2.1 3.1 1.9 3.7.4.7-1.9.5-4.2.4-6.2-.2-2.5-.6-4.9-.6-7.3zm16.9 4.4c-.9-2.8-2.4-5.2-3.6-7.8 1-1.9 2-3.9 2.9-5.9.8-1.8 1.4-3.8 3.1-5.1.6-.4.6-.9-.3-1-.9-.1-2.1.2-2.8.7C76 5.3 75 6.7 74.3 8.4c-.9 2.1-1.9 4.1-2.9 6.1-.1.1-.1.3-.2.4-.5.3-.8.8-.6 1.3-.8 1.6-1.6 3.1-2.5 4.6-.3-5.5-1-11.1-1.2-16.6 0-1.3-4-.5-3.9 1 .2 6.9 1.2 13.7 1.3 20.6v.1c-.3.3-.2.5.1.6 0 1.8-.1 3.5-.2 5.3-.5.7.5 1.1 1.1 1.1h.1c.7 0 2.6-.3 2.7-1.4.2-2.1.3-4.2.2-6.3 1.6-1.7 2.9-3.6 4.1-5.6.8 1.5 1.5 3 2 4.6.9 2.7 2.3 5.3 3.1 8 .5 1.8 4.5.7 3.9-1-1-2.8-2.4-5.3-3.3-8.1zm23.5-4.6c-.2-.8-1.4-.8-2.3-.8v-1c-.1-2.7-.2-5.4-.4-8-.2-2.5-1.6-3.3-4-3.2-2.4.1-5.2.5-7.5 1.4-2.6 1-4.1 2.9-4.6 5.7-.5 3 .2 6.2.4 9.2.2 3.5.1 7 .1 10.5 0 .6 3.9 0 3.9-1V23c0-.8-.1-1.6-.1-2.4 1.4-.6 3.7 0 5.1.1 1.1.1 2.2-.2 3.2-.3 0 2.3.1 4.6.2 6.9 0 1.2.5 3.5-.4 4.5-.4.5 1.5.3 1.6.3.8-.1 1.8-.4 2.3-1 .9-1.1.5-3.8.4-5.1-.1-1.9-.1-3.8-.1-5.7 1.1-.2 2.4-.9 2.2-1.8zM87 18.4c-.1-1.2-.2-2.5-.3-3.7-.2-2.3.1-5.6 2.3-7 .6-.4 1.7-.3 2.4-.4 1-.2 2-.4 2.8.2 1.2.8.9 3.7.9 4.9 0 2 .2 4 .3 6-.6.1-1.1.1-1.7.1-2.3-.2-4.6-.6-6.7-.1zM24.1 6.7c.5-.1 1-.2 1.5-.5l.2-.2c.5-.3 1-.8.7-1.4-.5-1.1-.4-2.2-.4-3.4 0-1-1-1.2-1.8-1.2-.7.1-2.2.6-2.2 1.5 0 1-.1 2 .1 3 0 .1-.1.2-.1.4-.1.2 0 .4.1.6v.4c.1.2.2.4.4.5.6.3 1.1.3 1.5.3z"/></g></switch></svg>