<svg version="1.1" id="svg2" xmlns="http://www.w3.org/2000/svg" x="0" y="0" viewBox="0 0 853.3 853.3" xml:space="preserve"><style>.st0,.st1{fill:#1d1d1b}.st1{fill-rule:evenodd;clip-rule:evenodd}</style><switch><g><g id="g10" transform="matrix(1.33333 0 0 -1.33333 0 853.333)"><g id="g12" transform="scale(.1)"><path id="path14" class="st0" d="M835.4 4083c-5.4 0-10.9 1.1-16.2 3.4-20.3 8.9-29.5 32.6-20.6 52.9 10.8 24.5 22 48.9 33.5 73 9.6 20 33.5 28.5 53.5 18.9 20-9.6 28.5-33.5 18.9-53.5-11.2-23.4-22-47-32.5-70.8-6.5-15-21.2-23.9-36.6-23.9zm-78.1-199.4c-4.3 0-8.7.7-13.1 2.2-21 7.2-32.1 30.1-24.9 51 11.8 34.3 24.4 68.6 37.5 102.1 8.1 20.7 31.4 30.9 52 22.7 20.6-8.1 30.8-31.4 22.7-52-12.7-32.4-24.9-65.7-36.3-98.9-5.6-16.6-21.2-27.1-37.9-27.1zm-85.2-309.4c-2.7 0-5.5.3-8.3.9-21.7 4.5-35.6 25.8-31.1 47.5 14.7 70.6 32.7 141.5 53.4 210.8 6.3 21.3 28.7 33.3 49.9 27 21.3-6.3 33.3-28.7 27-49.9-20-67.1-37.4-135.9-51.7-204.3-3.9-19-20.6-32-39.2-32zm-54.8-531.6c-22.2 0-40.1 18-40.1 40.1 0 145.1 12 290.7 35.6 432.9 3.6 21.9 24.3 36.7 46.2 33 21.8-3.6 36.6-24.3 33-46.2-22.9-137.8-34.5-279-34.5-419.7 0-22.1-18-40.1-40.2-40.1"/><path id="path16" class="st0" d="M3200 464.2c-1446.2 0-2622.8 1167.1-2622.8 2627.1h80.3c0-1400 1140.6-2546.8 2542.5-2546.8 699.3 0 1351 275.9 1835.2 780.7l58-54.5C4593.7 749.9 3921.3 464.2 3200 464.2"/><path id="path18" class="st0" d="M4872.6 1385.2l379.1 128.6-78.1-392.6-301 264z"/><path id="path20" class="st0" d="M5747.7 2616.4c-2.2 0-4.4.1-6.6.5-21.8 3.6-36.6 24.3-33 46.2 22.8 137.7 34.4 278.9 34.4 419.7 0 22.2 18 40.1 40.1 40.1 22.2 0 40.1-18 40.1-40.1 0-145.2-11.9-290.9-35.5-432.9-3.2-19.6-20.2-33.5-39.5-33.5zm-72.2-312.8c-3.8 0-7.7.5-11.5 1.7-21.3 6.3-33.3 28.7-27 49.9 20 67.1 37.4 135.8 51.7 204.3 4.5 21.7 25.9 35.5 47.5 31.1 21.7-4.5 35.6-25.8 31.1-47.5-14.8-70.6-32.7-141.4-53.4-210.7-5.2-17.6-21.2-28.8-38.4-28.8zm-69.8-202.5c-4.9 0-9.8.9-14.6 2.8-20.6 8.1-30.8 31.3-22.8 52 12.9 33 25.1 66.3 36.4 98.9 7.2 21 30.1 32.1 51 24.9 21-7.2 32.1-30.1 24.9-51-11.6-33.7-24.2-68-37.5-102.1-6.2-15.8-21.3-25.5-37.4-25.5zm-68.9-159.7c-5.8 0-11.6 1.2-17.1 3.8-20 9.5-28.6 33.4-19.2 53.4 9.4 19.9 18.5 39.9 27.4 60 9 20.3 32.6 29.5 52.9 20.5 20.3-9 29.5-32.7 20.5-52.9-9.1-20.8-18.6-41.4-28.2-61.9-6.8-14.4-21.3-22.9-36.3-22.9"/><path id="path22" class="st0" d="M5822.8 3091.3h-80.3c0 1410-1140.6 2538.3-2542.5 2538.3-698.3 0-1349.5-279.5-1833.5-783.2l-57.9 54.6c499.3 519.6 1171 809.5 1891.4 809.5 1446.2-.1 2622.8-1159.2 2622.8-2619.2"/><path id="path24" class="st0" d="M1529 4782l-379.2-128.3 78.5 392.6L1529 4782z"/><path id="path26" class="st1" d="M1691.7 2613.1c22.9 63.6 70.9 103.7 132.7 119.8 77.1 20 156.4 32.1 235.5 42.7 25.9 3.5 33.2 10.6 36.9 34.9 34.4 227.1 122 432.8 253.3 620.6 1.8 2.5 4.5 4.3 10.5 10.1 8.6-51 16.1-98.9 24.9-146.5 37.1-200.4 88.2-396.3 185.7-577.2 62.9-116.7 145.7-214.6 257.3-289.2 128.4-85.8 244.9-186.8 352.9-297.4 8.9-9.1 17.3-18.7 32.1-34.8-82.3-25.7-159.1-51-236.9-73.4-47.6-13.7-47.9-11.6-43.3-62.5 7.4-82.5 6.4-164.7-15.2-245.2-6.3-23.5-15.5-46.9-27.6-68-32-56.1-82.5-83.4-145.4-69-64 14.6-129.2 31.7-188.1 59.9-129.2 62.1-175.1 174.8-136.5 312.7 2.9 10.1 6 20.2 9.6 32.4-60.4 8.8-119.1 21.6-178.4 24.6-61.1 3.1-90.9 31.5-102.7 89.4-11.4 55.3-28.2 109.4-41.7 160.5-42.1-8.2-83.5-20-125.5-23.6-86.8-7.5-152.5 32.5-202.6 100.8-41.1 56.1-64.5 120.1-80.3 187.2-1.7 7-4.7 13.7-7.1 20.5-.1 23.6-.1 47.1-.1 70.7"/><path id="path28" class="st1" d="M2645.4 4550.3c6.4-39.3 11.9-77.2 18.9-114.7 9-48.3 11.6-49.4 60.5-34.5-13.8 52.3-27.6 104.7-42.1 159.5-12.2-3.4-23.1-6.4-37.3-10.3zm-28.6-162.8c-9.3 51.5-17.8 99.2-26.8 149.2-20.6-6.8-38.3-11.2-54.5-18.7-6.9-3.2-15.3-12.7-15.5-19.5-1.4-43.5-.7-87-.7-134 34 8 64.6 15.2 97.5 23zm-152.9 94.6c-3 1.6-6.1 3.2-9.1 4.8-25.1-17.3-65.6-30.3-72.1-52.9-13.3-46.9-8.4-99-11.2-152 30.4 19.6 55 34.5 78.4 51.1 6.5 4.6 13.1 14.1 13.3 21.5 1.3 42.4.7 85 .7 127.5zm258.9-278.7c-10.2 2.5-20.2 5.9-30.6 7.3-9.3 1.3-18.9.3-30.6.3 4-16.4 7.7-31.5 11.7-47.7-44.4-10.4-88.6-20.7-135.1-31.6-4.6 27.1-9.3 54.9-14 82.6h134.5c-10.4 41-19.9 78.3-30.3 118.9-31.8-8.3-60-13.9-86.7-23.6-8.2-3-16.6-16.8-17.5-26.2-2-23 .4-46.5.9-69.7-17.1-3.2-34.4-6.4-51.5-9.5l-7.2 80.9c-34.4-32.1-61.8-57.6-89.2-83.2 20.4-4.5 35-1.8 49.7-.2 15.7 1.7 31.5 2.3 47.3 3.3 15.2-65.6 8.8-122-60.1-156.5-14.7-7.4-24.3-25.1-41.3-43.6v183.9c-22.6-1.9-42-3.5-61.4-5.2h.2c3.1 71.1 11.2 142.4 7.8 213.2-2.7 57 21.4 87.7 67.1 113.9 91.8 52.7 190.5 84.3 293.3 105.9 6.9 1.5 13.5 4.6 20.2 7h32.1c26.6-100.7 51-202.1 80.6-302 14.7-49.5 38.8-96.3 60-147.4-21.2 5.1-40.2 9.7-62.2 15 2.1-10.7 3.5-17.4 4.9-24.2-70.7-13.4-84-7.7-93.6 39.2 26.4-3 52.9-6 81.3-9.2-15 37.1-29.4 71.3-42.8 106-17.7 45.7-21.2 47.7-76.3 32.5 13-43.4 25.9-86.7 38.8-130.1"/><path id="path30" class="st1" d="M3474 1813.4c142.8 112.2 276.6 235.2 399.1 380.6-56 57.8-110.6 114.2-160.3 165.4-120.9-125-233.4-241.4-345-356.7 32.7-58.4 68.1-121.5 106.2-189.3zm438.7 977.6c-40.7-142.8-102-267.9-175.4-376.1 57.1-61.3 112-120.4 170.9-183.8 53.9 79.8 106.4 157.6 160.4 237.8 6.8-19.8 13.7-39.9 20.6-60.1 3-1 5.9-2 8.9-3 42 91.6 83.9 183.3 127.3 278.1 98.8-103.5 150.7-229.2 161.8-373.7l8.1 1.8c4.1 53.3 8.2 106.6 13 169.2 28.2-81.1 35.8-155.9 34.8-231.6-.5-38.4-5.8-76.7-9.3-115-1.8-19.3-10.4-34.1-32.2-31.3-21.8 2.9-25.5 19.1-23.1 38.5 4.1 31.7 7.3 63.4 7.4 95.8-21.4-81.6-42.8-163.3-64.8-247.3-51.6 14.5-87.5 43.3-118.3 79.2-60.8 71.1-85.1 156.5-96.5 247.1-3.2 25.1-8.5 49.9-14 81.5-52.5-74.1-100.9-142.3-150.6-212.5 54.1-76.6 100.4-159.3 121.7-253.3 7.8-34.3 11.2-69.5 16.6-104.3 3-19.7-1.7-34.9-24.3-36.7-23.9-1.9-30.6 12.8-31.7 34.2-6.1 118-51.9 221.1-109.6 303.5-72.5-66.3-145.2-134.2-219.5-200.3-60.7-54-122.8-106.6-185.7-158.1-16.5-13.5-21.3-25.1-17.1-45.9 12.3-60.5 11.4-121-7.1-180.8-6.1-19.9-15.9-34.8-38.4-27.6-20.6 6.5-21.2 23-15.1 42 19.3 59.7 1.5 192.8-6 211.9-44.6 125.1-124 228.9-213.9 329.1 17.4 10 32.6 18.6 55.1 31.5-40.6 35.7-78.2 68.8-111.3 98 59.7 124.1 115.7 240.3 171.8 356.8 52.2-11.6 257.2-132.2 319-188.9-111.2-111.7-243.7-192.8-382.8-269.5 21.4-25.5 41.2-48.9 62.8-74.6 135.5 112.8 257.2 236.2 359 384.5-104.9 80.7-217.5 146.5-337.4 203 52 134.1 103.1 266 152.1 392.5 127.1-45.3 252.3-89.9 380-135.4-26.1-153.2-88.9-294.2-169.6-428.5 109.4 117.2 171.1 260.3 224.4 411.2 84-34.2 159.4-79.4 227.5-136.6 6-5 9.3-20 6.5-27.6-29.3-77.7-60-154.9-95.9-231.9-45.5 106.1-76.6 216.4-160.1 307.2"/><path id="path32" class="st1" d="M3881.2 3364.8c-202.5 39.9-386.9 121.2-552.3 244.5-196.3 146.2-340.8 334.6-451.7 560.2 15.1-4.7 24.4-7.1 33.3-10.6 142.8-56.6 260-146.9 352-269.5 12-16 24.4-22.7 43.9-26.2 66.2-11.7 131.9-26.4 200.9-40.6 8.6 28.6 17.1 60 27.7 90.8 36.5 106.1 90.7 201.6 180.1 271.6 37.3 29.2 82.3 48.8 123.6 73 20.4 12 40.2 25.2 60.9 36.6 9.9 5.4 24.1 14 31.6 10.7 30.9-13.8 57.9 3.1 86.7 5.6 41.1 3.5 83.2 8.6 123.7 3.7 54-6.4 87.2-45.2 92.7-99.7 2.6-26.4 1.5-53.6-1.6-80-3.5-29.8-16.1-57.5 6-87.8 7.6-10.4-3.1-36-8.7-53.6-7-21.8-19.8-41.9-25.9-63.9-42.5-152-141.6-255.9-277.5-328.4-37.5-20.1-77.3-35.9-113.3-52.5 22.3-61.3 44.6-122.9 67-184.5l.9.6"/><path id="path34" class="st1" d="M3956.3 3296.1c84.3-69.5 169.1-139.3 256-210.9-12.4 50.5-24.7 102.8-38.7 154.6-2 7.4-11.5 16.5-19 18.1-67.2 13.8-134.8 26.2-198.3 38.2zm-76 68c84.2-14.3 169.3-25.2 252.6-43.7 296.4-66 475.5-280.4 487.1-584 2.7-71.2-4.2-142.8-8.6-214.2-1.3-20.3-3.3-47.7-34.5-43.6-32.4 4.3-23.2 30.5-20.1 50.8 18.7 123.2 15.2 245.3-20.3 365.3-43.3 146-131.7 254.9-269.8 321.7-6.6 3.2-13.6 5.6-22.7 9.2 10-75.2 19.6-148.2 29.3-221.2-3.4-1.4-6.8-2.7-10.2-4.1-15.7 21.1-31.4 42.2-46.3 62.3-6.9-88.9-13.8-176.9-20.5-264.3-90.2 52-173.1 99.9-259.3 149.6 13.9 139.4-10.3 279.6-55.6 416.9-.2 0-1.1-.7-1.1-.7"/><path id="path36" class="st1" d="M2738.8 3218.6c53.3-80.3 101.7-164 161.2-238.9 37-46.6 41.9-80.5 14.9-134-52.1-103-88.7-212.8-108-339.5-36.6 38.7-71.4 68.9-97.8 105.3-38.3 52.4-70 109.7-105.6 164.1-22.1 33.8-23.4 69.8-17 107.5 21.6 126.3 81.8 234.8 152.3 335.5"/><path id="path38" class="st1" d="M3195.7 3255.2c88.3-66 170.2-127.3 255.8-191.4-48.7-126.2-98.9-256.4-149.9-388.6-8.3 3.6-14.3 5.1-19.2 8.4-93.8 64.6-178.7 139.3-254.3 224.4-6.2 7-11.7 22.8-8.1 29.4 57.9 106.8 117.4 212.9 175.7 317.8"/><path id="path40" class="st1" d="M2986.9 2872c18.4-19.7 32.9-38.5 50.5-53.6 72.1-61.7 145.1-122.3 218.1-183 10.4-8.6 24.4-12.8 15.4-32.1-50.8-107.9-100.6-216.3-152.1-327.3-11.4 7-16.8 9.6-21.4 13.2-72.9 57.6-146.1 114.8-217.9 173.6-9.4 7.6-17.9 24.5-16.5 35.8 16.8 130.5 66.1 250.5 123.9 373.4"/><path id="path42" class="st1" d="M3889.5 2961c-129.1 32.7-252.3 67.7-367.1 135.2 33 93.7 66.1 187.8 100.5 285.3 23.9-8.1 46.4-16.5 69.4-23.3 48.1-14.1 96.7-26.8 144.7-41.4 9.8-3 22.9-10.4 25.5-18.6 34.5-109.8 38.8-222 27-337.2"/><path id="path44" class="st1" d="M2980.9 3507.3c61-73.1 117.8-141.1 175.7-210.5-60.4-104.9-122-212.1-185.7-322.7-17.5 23.3-36.6 45.6-52.3 70.2-43.5 68.6-86.1 137.7-127.6 207.5-5.2 8.8-7 27.1-1.5 33.6 63 75 127.7 148.6 191.4 221.9"/><path id="path46" class="st1" d="M2538.2 2930c-52.3 146.1-83.4 286.6-107.3 428.9-1.6 9.2-2.1 20.1 1.5 28.3 35.4 81.3 86.2 151.3 153.3 209.3 32.2-82.5 58.7-165.1 96.4-242.2 26-53.1 24.5-90.6-11.7-138.9-61.5-82.2-103.9-175.9-132.2-285.4"/><path id="path48" class="st1" d="M2311.6 4183.5c2.1-56.4 4.3-112.9 6.2-169.3 1.3-37.4 3.2-74.8 2.5-112.1-.2-8.1-10.2-22.7-16.6-23.2-106.5-8.2-210.2 1.2-299.1 68-29.1 21.9-51.8 52.1-81.4 82.6 22.3 11.8 36.3 21.4 51.8 27.1 106.9 39.7 214.1 78.5 321.2 117.8 5.6 2.1 10.5 6 15.7 9.1h-.3"/><path id="path50" class="st1" d="M3470.5 3117.4c-83.8 63.9-161.5 123.2-241.9 184.5 48.9 72.9 94.5 140.7 138.9 206.9 64.4-33.5 125.9-65.1 186.6-98.1 6.3-3.4 12.7-17.5 10.6-23.8-29.3-86.5-60-172.7-94.2-269.5"/><path id="path52" class="st1" d="M2950.9 3554.4c-66.9-73.3-132.3-145.1-199-218.3-2.8 3.9-7.4 8.2-9.4 13.5-33.9 88.7-67.9 177.2-100.2 266.4-3 8.4 1.6 26.6 8.3 30.6 60.3 35.8 121.9 69.3 184.9 104.6 40.9-69.8 78-133 115.4-196.8"/><path id="path54" class="st1" d="M3023.5 3544c50.8 45 96.3 85.3 142.3 126.1 53.3-43.6 104.3-85.4 156.5-128.1-43.4-64.1-86.8-128.2-133.9-197.8-55.7 67.6-109.2 132.3-164.9 199.8"/><path id="path56" class="st1" d="M2378.6 3872.3c2.8-47.5 5.6-95.1 8.3-141.3 40.9 37.7 79.1 75.7 120.4 110.1 34 28.4 72.1 13.4 82.1-28.9 6.9-29.1 13.1-58.4 21.5-87.1 2.3-8 11.7-14 17.4-20.4-15.9-9-36.6-20.6-60.2-33.9-10.5 40.2-20.7 78.8-30.9 117.6-96.9-43-158.7-178.3-127.5-264.5 21.6 18.8 46 39.3 69.7 60.7 22.5 20.4 44 41.9 67.4 61.1-44.4-53.4-88.8-106.8-133-160.1-1.1 3.2-3.1 8.8-6.5 18.9-15-18.3-28.5-34.8-49.1-59.9-13.4 147.1-25.8 284.6-38.7 426.6h60.2l-1.1 1.1"/><path id="path58" class="st1" d="M4405 2515.6c-35.5 56-63.6 119.4-108.7 166.3-48.2 50.1-59.4 96.9-41.4 161 11.9 42.4 11.3 88.3 17.1 139.9 90.2-147.6 129.2-303.1 133-467.2"/><path id="path60" class="st1" d="M2689.2 4111c20.7-57.2 38.7-107.1 56.6-156.7-58-22.6-114.3-44.5-173.3-67.5-8.8 54.8-18.5 109.2-25.4 163.9-1.1 8.5 8.7 24.5 16.7 27 40.3 12.7 81.7 22 125.4 33.3"/><path id="path62" class="st1" d="M3127.2 3710c-44.5-39.1-87.4-76.7-134.1-117.8-33.5 56.9-65.5 111.5-102.3 174.1 53.7 11.6 101.8 22.2 150 31.9 3.9.8 10.1-3.2 13.3-6.7 24.2-26.5 48.1-53.5 73.1-81.5"/><path id="path64" class="st1" d="M2379.5 3871.4c1.2 51.4 55.3 132.4 112 165.5 10-58.9 19.8-116.8 30-177.1-49.9 4.4-96.4 8.4-142.9 12.5l.9-.9"/><path id="path66" class="st1" d="M2735.5 3777.9c-43.3 22.9-80.2 42.5-122.4 64.8 51.4 19.7 101.2 38.8 154.1 59 16.3-35.5 31.2-68 46.5-101.3-52.5-25.6-103.6-50.4-154.6-75.2-.9 1.3-1.8 2.7-2.7 4 23 14.2 46.2 28.4 79.1 48.7"/><path id="path68" class="st1" d="M2912 3986.3c-33.2-6.3-63.2-13.1-93.6-16.8-7.1-.9-19.9 6.9-22.7 13.8-16.2 39.2-30.2 79.3-45 119.2 72.8 20.6 105.4-3 161.3-116.2"/><path id="path70" class="st1" d="M2822.9 3914.1c41.5 6.3 76.9 12.2 112.5 16.6 6.1.8 15.3-2.7 18.9-7.5 17.3-22.4 33.1-46 51.4-71.8-48.4-11.8-92.3-22.5-138.7-33.8-13.9 30.3-27.5 60-44.1 96.5"/></g></g></g></switch></svg>